<svg width="56" height="48" viewBox="0 0 56 48" fill="none" xmlns="http://www.w3.org/2000/svg">
<path d="M0 16C0 7.16344 7.16344 0 16 0H40C48.8366 0 56 7.16344 56 16V46C56 47.1046 55.1046 48 54 48H16C7.16344 48 0 40.8366 0 32V16Z" fill="#25D165"/>
<path d="M27.4133 12.0139C21.0233 12.3157 15.9807 17.5943 16.0001 23.9399C16.006 25.8726 16.4763 27.6968 17.3061 29.3086L16.0321 35.4429C15.9632 35.7747 16.2649 36.0652 16.5972 35.9872L22.6571 34.5631C24.2139 35.3323 25.9626 35.7766 27.8133 35.8047C34.3446 35.9036 39.7904 30.7596 39.994 24.2836C40.2122 17.3417 34.4362 11.6821 27.4133 12.0139ZM34.644 30.4934C32.8693 32.2537 30.5098 33.2231 28 33.2231C26.5305 33.2231 25.1235 32.8961 23.8181 32.2511L22.9742 31.8341L19.2589 32.7072L20.041 28.9416L19.6252 28.134C18.9475 26.8176 18.6039 25.394 18.6039 23.903C18.6039 21.4135 19.5813 19.0731 21.356 17.3127C23.1148 15.5681 25.5128 14.5828 28.0002 14.5828C30.5099 14.5829 32.8694 15.5523 34.6441 17.3126C36.4187 19.0729 37.3961 21.4134 37.3961 23.9028C37.3961 26.3701 36.4028 28.7488 34.644 30.4934Z" fill="white"/>
<path d="M33.3976 26.6582L31.1657 25.9691C30.8723 25.8786 30.5563 25.9681 30.3425 26.2023L29.7967 26.8002C29.5666 27.0523 29.2173 27.1333 28.9128 27.0008C27.857 26.5414 25.636 24.4183 25.0688 23.3563C24.9052 23.0499 24.9323 22.667 25.1332 22.3874L25.6097 21.7246C25.7964 21.465 25.8358 21.1162 25.7123 20.816L24.7733 18.5326C24.5484 17.9857 23.8984 17.8265 23.4737 18.2127C22.8508 18.7791 22.1117 19.6399 22.0219 20.5935C21.8635 22.2748 22.5341 24.3942 25.0701 26.9391C27.9999 29.8791 30.3461 30.2675 31.8737 29.8697C32.7401 29.644 33.4325 28.7395 33.8695 27.9988C34.1674 27.4938 33.9322 26.8232 33.3976 26.6582Z" fill="white"/>
</svg>
